PathFileType	4	(X/Y/Z)	 1.9Hzlow3min.trc
DataRate	CameraRate	NumFrames	NumMarkers	Units	OrigDataRate	OrigDataStartFrame	OrigNumFrames
200	200	9	43	m	200	126	1000
Frame#	Time	C7			LSH			RSH			MAN			RASI			LASI			HIPR			HIPL			RPSI			LPSI			COX			RTHI1			RTHI2			RTHI3			RTHI4			RLKN			RMKN			RSHA1			RSHA2			RSHA3			RSHA4			RLMAL			RMMAL			RHEEL			RMET5			RMET1			RTOE			LTHI1			LTHI2			LTHI3			LTHI4			LLKN			LMKN			LSHA1			LSHA2			LSHA3			LSHA4			LLMAL			LMMAL			LHEEL			LMET5			LMET1			LTOE			
		X1	Y1	Z1	X2	Y2	Z2	X3	Y3	Z3	X4	Y4	Z4	X5	Y5	Z5	X6	Y6	Z6	X7	Y7	Z7	X8	Y8	Z8	X9	Y9	Z9	X10	Y10	Z10	X11	Y11	Z11	X12	Y12	Z12	X13	Y13	Z13	X14	Y14	Z14	X15	Y15	Z15	X16	Y16	Z16	X17	Y17	Z17	X18	Y18	Z18	X19	Y19	Z19	X20	Y20	Z20	X21	Y21	Z21	X22	Y22	Z22	X23	Y23	Z23	X24	Y24	Z24	X25	Y25	Z25	X26	Y26	Z26	X27	Y27	Z27	X28	Y28	Z28	X29	Y29	Z29	X30	Y30	Z30	X31	Y31	Z31	X32	Y32	Z32	X33	Y33	Z33	X34	Y34	Z34	X35	Y35	Z35	X36	Y36	Z36	X37	Y37	Z37	X38	Y38	Z38	X39	Y39	Z39	X40	Y40	Z40	X41	Y41	Z41	X42	Y42	Z42	X43	Y43	Z43	
126	0.6300	-0.300840	1.446112	-0.514808	-0.296378	1.441723	-0.697345	-0.224070	1.429330	-0.344201	-0.178314	1.379779	-0.532594	-0.187697	0.955567	-0.420688	-0.200480	0.957300	-0.640129	-0.234212	1.004384	-0.385890	-0.277176	1.003173	-0.666827	-0.340767	0.992192	-0.463380	-0.347125	0.993104	-0.567047	-0.349024	0.985001	-0.513212	-0.255415	0.754264	-0.341755	-0.237212	0.697676	-0.335596	-0.175434	0.714254	-0.348506	-0.187052	0.774070	-0.357609	-0.202928	0.440727	-0.354424	-0.207452	0.436255	-0.454583	-0.340118	0.264581	-0.358670	-0.361988	0.230016	-0.371688	-0.306163	0.206315	-0.379943	-0.288684	0.241747	-0.370853	-0.390172	0.115898	-0.386682	-0.361040	0.134560	-0.463916	-0.436824	0.123474	-0.435916	-0.305257	0.037967	-0.352166	-0.254317	0.044560	-0.422133	-0.232040	0.037084	-0.416967	-0.303077	0.750850	-0.710928	-0.281430	0.694634	-0.724487	-0.220749	0.714749	-0.735066	-0.233909	0.772467	-0.723282	-0.211509	0.459742	-0.734509	-0.201566	0.454474	-0.632229	-0.352805	0.263476	-0.731254	-0.370550	0.228785	-0.720284	-0.312640	0.207442	-0.712673	-0.301133	0.248382	-0.725190	-0.385199	0.128587	-0.717536	-0.368184	0.141706	-0.638878	-0.442567	0.124071	-0.671869	-0.306237	0.040279	-0.730118	-0.262527	0.046265	-0.653989	-0.238895	0.038128	-0.654921	
127	0.6350	-0.301487	1.451530	-0.514901	-0.297010	1.447515	-0.697137	-0.225196	1.435550	-0.344377	-0.178760	1.386132	-0.532505	-0.186359	0.961198	-0.420818	-0.198893	0.962827	-0.640133	-0.232679	1.010607	-0.386304	-0.275058	1.009148	-0.666923	-0.339262	0.997957	-0.463723	-0.345461	0.998948	-0.567544	-0.347439	0.990844	-0.513627	-0.255413	0.759925	-0.341968	-0.237696	0.703184	-0.335769	-0.175779	0.719228	-0.348724	-0.186892	0.779138	-0.357875	-0.205385	0.446059	-0.354403	-0.209688	0.441242	-0.454644	-0.340354	0.268401	-0.358313	-0.361622	0.233345	-0.371318	-0.305567	0.210410	-0.379057	-0.288614	0.246080	-0.370185	-0.388699	0.118762	-0.385707	-0.359427	0.137419	-0.462763	-0.435080	0.126731	-0.434950	-0.304324	0.038577	-0.351997	-0.254112	0.044536	-0.422127	-0.232065	0.037136	-0.417041	-0.302724	0.756741	-0.711074	-0.281602	0.700238	-0.724383	-0.220603	0.719662	-0.734463	-0.233218	0.777507	-0.722812	-0.214515	0.464439	-0.733311	-0.204946	0.459177	-0.630965	-0.353352	0.266460	-0.730715	-0.370516	0.231446	-0.719985	-0.312286	0.210870	-0.712845	-0.301410	0.252060	-0.725063	-0.383975	0.131050	-0.717850	-0.366773	0.143855	-0.639346	-0.440881	0.126692	-0.671992	-0.305663	0.040666	-0.729847	-0.262334	0.046259	-0.653947	-0.238911	0.038138	-0.654900	
128	0.6400	-0.302147	1.457070	-0.514985	-0.297636	1.453450	-0.696910	-0.226324	1.441879	-0.344572	-0.179218	1.392638	-0.532418	-0.184990	0.966975	-0.420997	-0.197324	0.968500	-0.640162	-0.231021	1.017069	-0.386757	-0.272942	1.015313	-0.666973	-0.337712	1.003923	-0.464037	-0.343792	1.004971	-0.568021	-0.345811	0.996910	-0.514021	-0.255393	0.765741	-0.342182	-0.238174	0.708840	-0.335930	-0.176122	0.724337	-0.348951	-0.186721	0.784330	-0.358151	-0.207880	0.451584	-0.354386	-0.211918	0.446406	-0.454737	-0.340521	0.272394	-0.357985	-0.361164	0.236879	-0.370924	-0.304852	0.214706	-0.378135	-0.288460	0.250617	-0.369488	-0.387040	0.121766	-0.384748	-0.357578	0.140368	-0.461566	-0.433155	0.130163	-0.434018	-0.303354	0.039236	-0.351791	-0.253905	0.044520	-0.422116	-0.232113	0.037189	-0.417098	-0.302417	0.762790	-0.711202	-0.281835	0.705993	-0.724251	-0.220540	0.724730	-0.733894	-0.232596	0.782694	-0.722367	-0.217562	0.469364	-0.732128	-0.208265	0.464116	-0.629715	-0.353766	0.269710	-0.730186	-0.370345	0.234321	-0.719686	-0.311787	0.214543	-0.713066	-0.301577	0.255985	-0.724968	-0.382573	0.133687	-0.718129	-0.365087	0.146185	-0.639833	-0.438944	0.129548	-0.672006	-0.305050	0.041084	-0.729526	-0.262102	0.046256	-0.653906	-0.238903	0.038150	-0.654894	
129	0.6450	-0.302812	1.462700	-0.515061	-0.298246	1.459487	-0.696668	-0.227440	1.448274	-0.344788	-0.179686	1.399248	-0.532337	-0.183597	0.972859	-0.421219	-0.195780	0.974288	-0.640204	-0.229254	1.023697	-0.387236	-0.270839	1.021631	-0.666980	-0.336127	1.010063	-0.464318	-0.342132	1.011150	-0.568478	-0.344146	1.003160	-0.514389	-0.255356	0.771666	-0.342391	-0.238639	0.714607	-0.336079	-0.176460	0.729543	-0.349182	-0.186533	0.789618	-0.358433	-0.210369	0.457267	-0.354382	-0.214109	0.451713	-0.454858	-0.340599	0.276520	-0.357697	-0.360611	0.240597	-0.370493	-0.303982	0.219185	-0.377179	-0.288195	0.255325	-0.368763	-0.385192	0.124904	-0.383830	-0.355472	0.143397	-0.460342	-0.430976	0.133741	-0.433170	-0.302324	0.039937	-0.351549	-0.253701	0.044512	-0.422100	-0.232181	0.037248	-0.417135	-0.302172	0.768955	-0.711290	-0.282131	0.711877	-0.724091	-0.220562	0.729926	-0.733357	-0.232051	0.788003	-0.721955	-0.220626	0.474486	-0.730969	-0.211491	0.469257	-0.628490	-0.354067	0.273132	-0.729653	-0.370016	0.237406	-0.719431	-0.311127	0.218444	-0.713350	-0.301610	0.260144	-0.724920	-0.380966	0.136478	-0.718389	-0.363116	0.148665	-0.640355	-0.436735	0.132617	-0.671940	-0.304408	0.041535	-0.729194	-0.261829	0.046264	-0.653868	-0.238878	0.038173	-0.654913	
130	0.6500	-0.303475	1.468379	-0.515132	-0.298835	1.465587	-0.696410	-0.228525	1.454704	-0.345024	-0.180156	1.405910	-0.532263	-0.182194	0.978813	-0.421473	-0.194268	0.980165	-0.640255	-0.227413	1.030434	-0.387713	-0.268758	1.028064	-0.666944	-0.334516	1.016346	-0.464559	-0.340494	1.017452	-0.568896	-0.342458	1.009553	-0.514719	-0.255304	0.777651	-0.342594	-0.239082	0.720445	-0.336218	-0.176787	0.734816	-0.349404	-0.186331	0.794973	-0.358717	-0.212830	0.463068	-0.354393	-0.216220	0.457117	-0.455012	-0.340569	0.280778	-0.357421	-0.359952	0.244478	-0.370024	-0.302956	0.223817	-0.376206	-0.287808	0.260179	-0.368013	-0.383142	0.128156	-0.382965	-0.353092	0.146490	-0.459107	-0.428578	0.137470	-0.432421	-0.301373	0.040621	-0.351396	-0.253470	0.044512	-0.422083	-0.232266	0.037301	-0.417153	-0.301978	0.775181	-0.711314	-0.282489	0.717859	-0.723899	-0.220666	0.735220	-0.732851	-0.231581	0.793410	-0.721577	-0.223678	0.479775	-0.729833	-0.214608	0.474562	-0.627290	-0.354218	0.276793	-0.729171	-0.369509	0.240665	-0.719228	-0.310298	0.222562	-0.713710	-0.301496	0.264505	-0.724932	-0.379134	0.139404	-0.718672	-0.360849	0.151273	-0.640929	-0.434242	0.135886	-0.671829	-0.303726	0.041994	-0.728842	-0.261504	0.046285	-0.653829	-0.238828	0.038194	-0.654945	
131	0.6550	-0.304124	1.474066	-0.515201	-0.299400	1.471717	-0.696143	-0.229568	1.461141	-0.345279	-0.180623	1.412587	-0.532198	-0.180789	0.984796	-0.421746	-0.192794	0.986103	-0.640310	-0.225530	1.037223	-0.388179	-0.266714	1.034580	-0.666895	-0.332890	1.022729	-0.464755	-0.338890	1.023839	-0.569274	-0.340756	1.016046	-0.515012	-0.255235	0.783665	-0.342790	-0.239499	0.726320	-0.336347	-0.177092	0.740128	-0.349617	-0.186115	0.800360	-0.358996	-0.215270	0.468947	-0.354435	-0.218227	0.462586	-0.455207	-0.340337	0.285192	-0.357094	-0.359179	0.248485	-0.369532	-0.301799	0.228563	-0.375222	-0.287280	0.265165	-0.367234	-0.380893	0.131493	-0.382156	-0.350435	0.149634	-0.457877	-0.425933	0.141326	-0.431784	-0.300366	0.041325	-0.351260	-0.253209	0.044518	-0.422076	-0.232335	0.037360	-0.417153	-0.301836	0.781502	-0.711290	-0.282904	0.723906	-0.723668	-0.220852	0.740584	-0.732380	-0.231200	0.798899	-0.721229	-0.226699	0.485194	-0.728716	-0.217603	0.479975	-0.626121	-0.354169	0.280594	-0.728741	-0.368814	0.244068	-0.719082	-0.309288	0.226845	-0.714145	-0.301227	0.269033	-0.725001	-0.377054	0.142430	-0.719000	-0.358278	0.153980	-0.641579	-0.431454	0.139330	-0.671699	-0.302977	0.042471	-0.728466	-0.261130	0.046327	-0.653780	-0.238748	0.038228	-0.654978	
132	0.6600	-0.304754	1.479730	-0.515271	-0.299934	1.477844	-0.695868	-0.230560	1.467545	-0.345549	-0.181089	1.419228	-0.532145	-0.179390	0.990781	-0.422031	-0.191364	0.992073	-0.640361	-0.223653	1.043999	-0.388613	-0.264724	1.041140	-0.666840	-0.331262	1.029168	-0.464909	-0.337278	1.030267	-0.569605	-0.339053	1.022596	-0.515253	-0.255148	0.789675	-0.342979	-0.239886	0.732203	-0.336466	-0.177374	0.745447	-0.349823	-0.185890	0.805757	-0.359272	-0.217686	0.474873	-0.354524	-0.220110	0.468071	-0.455433	-0.339910	0.289713	-0.356723	-0.358270	0.252554	-0.369067	-0.300505	0.233390	-0.374233	-0.286628	0.270247	-0.366441	-0.378456	0.134870	-0.381395	-0.347505	0.152805	-0.456665	-0.422953	0.145219	-0.431266	-0.299382	0.041989	-0.351238	-0.252907	0.044534	-0.422083	-0.232374	0.037402	-0.417111	-0.301741	0.787846	-0.711214	-0.283371	0.729989	-0.723397	-0.221113	0.745993	-0.731939	-0.230903	0.804442	-0.720909	-0.229677	0.490699	-0.727618	-0.220448	0.485454	-0.624984	-0.353941	0.284480	-0.728351	-0.367928	0.247591	-0.719015	-0.308092	0.231250	-0.714654	-0.300802	0.273687	-0.725135	-0.374716	0.145525	-0.719393	-0.355390	0.156766	-0.642320	-0.428366	0.142928	-0.671583	-0.302175	0.042961	-0.728101	-0.260684	0.046409	-0.653729	-0.238623	0.038253	-0.655037	
133	0.6650	-0.305360	1.485347	-0.515344	-0.300434	1.483934	-0.695592	-0.231494	1.473884	-0.345828	-0.181549	1.425798	-0.532104	-0.178006	0.996730	-0.422322	-0.189985	0.998050	-0.640403	-0.221799	1.050712	-0.389009	-0.262804	1.047707	-0.666781	-0.329647	1.035625	-0.465021	-0.335677	1.036706	-0.569885	-0.337364	1.029154	-0.515444	-0.255043	0.795641	-0.343159	-0.240233	0.738060	-0.336578	-0.177630	0.750755	-0.350024	-0.185655	0.811132	-0.359551	-0.220087	0.480796	-0.354676	-0.221865	0.473537	-0.455693	-0.339362	0.294275	-0.356363	-0.357217	0.256634	-0.368642	-0.299080	0.238271	-0.373239	-0.285873	0.275380	-0.365656	-0.375826	0.138274	-0.380678	-0.344286	0.155987	-0.455471	-0.419647	0.149133	-0.430867	-0.298314	0.042705	-0.351213	-0.252512	0.044602	-0.422121	-0.232348	0.037440	-0.417047	-0.301689	0.794187	-0.711061	-0.283882	0.736084	-0.723085	-0.221443	0.751423	-0.731524	-0.230680	0.810017	-0.720610	-0.232596	0.496248	-0.726545	-0.223143	0.490953	-0.623880	-0.353536	0.288488	-0.727994	-0.366855	0.251193	-0.719030	-0.306723	0.235767	-0.715248	-0.300219	0.278435	-0.725325	-0.372107	0.148665	-0.719869	-0.352191	0.159608	-0.643159	-0.424987	0.146644	-0.671517	-0.301284	0.043498	-0.727746	-0.260149	0.046525	-0.653687	-0.238416	0.038288	-0.655114	
134	0.6700	-0.305939	1.490892	-0.515421	-0.300896	1.489957	-0.695320	-0.232362	1.480128	-0.346115	-0.182001	1.432262	-0.532076	-0.176646	1.002614	-0.422608	-0.188659	1.004006	-0.640444	-0.220006	1.057329	-0.389365	-0.260969	1.054247	-0.666732	-0.328056	1.042044	-0.465093	-0.334100	1.043107	-0.570102	-0.335702	1.035667	-0.515591	-0.254919	0.801535	-0.343332	-0.240542	0.743855	-0.336684	-0.177861	0.756027	-0.350225	-0.185420	0.816455	-0.359830	-0.222470	0.486681	-0.354891	-0.223499	0.478940	-0.455977	-0.338710	0.298840	-0.356027	-0.355964	0.260727	-0.368206	-0.297565	0.243159	-0.372259	-0.285023	0.280533	-0.364884	-0.372997	0.141664	-0.379974	-0.340783	0.159162	-0.454286	-0.416160	0.153085	-0.430513	-0.297167	0.043425	-0.351252	-0.252007	0.044722	-0.422173	-0.232216	0.037485	-0.416985	-0.301666	0.800490	-0.710822	-0.284431	0.742154	-0.722736	-0.221832	0.756841	-0.731134	-0.230523	0.815593	-0.720329	-0.235451	0.501802	-0.725487	-0.225698	0.496424	-0.622803	-0.352963	0.292495	-0.727686	-0.365602	0.254819	-0.719098	-0.305193	0.240348	-0.715920	-0.299490	0.283238	-0.725565	-0.369232	0.151829	-0.720442	-0.348699	0.162494	-0.644098	-0.421348	0.150464	-0.671519	-0.300287	0.044073	-0.727414	-0.259501	0.046717	-0.653656	-0.238097	0.038337	-0.655209	
